<?xml version="1.0" encoding="UTF-8" standalone="no"?>
<svg width="88px" height="88px" viewBox="0 0 88 88" version="1.1" xmlns="http://www.w3.org/2000/svg" xmlns:xlink="http://www.w3.org/1999/xlink" xmlns:sketch="http://www.bohemiancoding.com/sketch/ns">
    <!-- Generator: Sketch 3.4.1 (15681) - http://www.bohemiancoding.com/sketch -->
    <title>Icon-Bordered</title>
    <desc>Created with Sketch.</desc>
    <defs></defs>
    <g id="Icon" stroke="none" stroke-width="1" fill="none" fill-rule="evenodd" sketch:type="MSPage">
        <g id="Icon-Bordered" sketch:type="MSArtboardGroup">
            <g id="Desman" sketch:type="MSLayerGroup" transform="translate(22.000000, 14.000000)" stroke="#0066AB" stroke-width="2">
                <path d="M25.3647251,43.8639145 C36.356726,42.640506 44,33.3184054 44,22 C44,9.8497355 34.1502645,0 22,0 C9.8497355,0 0,9.8497355 0,22 C0,33.3493229 7.63568255,42.6815757 18.6710567,43.8639145" id="Oval-1" stroke-linecap="round" sketch:type="MSShapeGroup"></path>
                <path d="M25.3781974,44 C26.3019643,47.4311342 27.5307047,52.5083805 28.2455897,55.1636677 M15.6205075,55.2810946 C16.6834595,51.3329871 18.5790102,44.1589432 18.5790102,44.1589432" id="Triangle-1" stroke-linecap="round" sketch:type="MSShapeGroup"></path>
                <path d="M24.5866452,59.7823794 C25.1331027,60.5210605 26.0106202,61 27,61 C28.6568542,61 30,59.6568542 30,58 C30,56.7963872 29.2911928,55.7583253 28.2682242,55.2804597" id="Oval-2" stroke-linecap="round" sketch:type="MSShapeGroup"></path>
                <path d="M19.468055,59.6098212 L19.468055,59.6098212 C20.0005643,60.4456129 20.9355401,61 22,61 C23.0413673,61 23.9588077,60.4694059 24.4967225,59.6638165" id="Oval-2" stroke-linecap="round" sketch:type="MSShapeGroup"></path>
                <path d="M15.5812434,55.3560188 C14.6399284,55.8621881 14,56.8563624 14,58 C14,59.6568542 15.3431458,61 17,61 C18.0815809,61 19.029479,60.4276357 19.5573265,59.5692747" id="Path" stroke-linecap="round" sketch:type="MSShapeGroup"></path>
                <ellipse id="Oval-1" sketch:type="MSShapeGroup" transform="translate(13.965753, 29.161098) rotate(-290.000000) translate(-13.965753, -29.161098) " cx="13.9657531" cy="29.161098" rx="3" ry="1"></ellipse>
                <ellipse id="Oval-1" sketch:type="MSShapeGroup" transform="translate(28.965753, 29.161098) scale(-1, 1) rotate(-290.000000) translate(-28.965753, -29.161098) " cx="28.9657531" cy="29.161098" rx="3" ry="1"></ellipse>
            </g>
            <path d="M44,88 C68.300529,88 88,68.300529 88,44 C88,32.182074 83.3408613,21.4523482 75.7592164,13.547455 C67.7511561,5.19796591 56.482603,0 44,0 C19.699471,0 0,19.699471 0,44 C0,68.300529 19.699471,88 44,88 Z" id="Oval-29" sketch:type="MSShapeGroup"></path>
            <path d="M30.5599995,2 C21.25,2 18.275,1.99999999 14.075,3.4 C9.12600021,5.15 5.15,9.12600021 3.4,14.075 C2,18.275 2,21.25 2,30.5599995 C2,30.5599995 2.00000005,57.4399979 2,57.4399979 C2.00000005,66.75 2.00000004,69.725 3.4,73.925 C5.15324707,78.8739998 9.12600021,82.85 14.075,84.6 C18.275,86 21.25,86 30.5599995,86 L57.4399979,86 C66.75,86 69.725,86 73.925,84.6 C78.8739998,82.85 82.85,78.8739998 84.6,73.925 C86,69.725 86,66.75 86,57.4399979 L86,30.5599995 C86,21.25 86,18.275 84.6,14.075 C82.85,9.175 78.8179985,5.15 73.9179985,3.4 C69.7179985,2 66.75,2.00000001 57.4399979,2 C62.3399979,2.00000001 30.5599995,2 30.5599995,2 Z" id="App-icon" stroke="#0066AB" stroke-width="2" sketch:type="MSShapeGroup"></path>
        </g>
    </g>
</svg>